<svg data-v-1084b650="" xmlns="http://www.w3.org/2000/svg" viewBox="0 0 300 300"><!----> <!----> <rect data-v-1084b650="" fill="#2A3520" x="0" y="0" width="300px" height="300px" class="logo-background-square"></rect> <!----> <g data-v-1084b650="" id="0f727dd9-f820-09c1-9f27-0bc436a1255e" fill="#FFFFFF" transform="matrix(2.5,0,0,2.5,25.387495562434196,167.28749769739807)"><path d="M4.65 0.70L1.41 9.45L0.21 9.91L0.31 10.50L3.50 10.50L3.60 9.91L2.16 9.45L2.95 7.20L6.62 7.20L7.41 9.45L6.20 9.91L6.30 10.50L10.11 10.50L10.22 9.91L9.02 9.45L5.87 0.46ZM5.00 1.78L5.00 2.49L6.41 6.61L3.18 6.61ZM13.12 9.70L13.12 0.20L12.49 0.04L11.00 0.20L11.10 0.70L11.80 0.70L11.80 9.70L10.89 10.00L10.99 10.50L13.93 10.50L14.03 10.00ZM16.95 2.34L16.31 2.18L15.72 3.65L14.73 3.96L14.83 4.47L15.64 4.47L15.64 8.85C15.64 9.87 16.20 10.65 17.49 10.65C18.28 10.65 18.69 10.33 19.15 9.84L18.83 9.46C18.54 9.79 18.23 10.00 17.72 10.00C17.30 10.00 16.95 9.62 16.95 8.96L16.95 4.47L18.69 4.47L18.79 3.96L16.95 3.96ZM21.22 6.54C21.34 5.24 21.90 4.33 23.10 4.33C24.07 4.33 24.60 4.87 24.60 5.89C24.60 6.09 24.56 6.36 24.50 6.54ZM23.44 10.00C21.92 10.00 21.20 8.79 21.20 7.11L21.20 7.04L25.68 7.04C25.79 6.80 25.91 6.38 25.91 6.01C25.91 4.66 24.72 3.81 23.10 3.81C21.14 3.81 19.71 5.07 19.71 7.22C19.71 9.30 20.87 10.65 23.35 10.65C24.26 10.65 25.16 10.37 25.76 9.83L25.44 9.37C24.86 9.73 24.18 10.00 23.44 10.00ZM32.17 5.47L32.17 4.05C31.77 3.88 31.35 3.81 30.93 3.81C30.20 3.81 29.67 4.06 29.19 4.33L28.70 3.81L27.08 3.96L27.17 4.47L27.87 4.47L27.87 9.70L26.96 10.00L27.06 10.50L30.00 10.50L30.11 10.00L29.19 9.70L29.19 4.84C29.68 4.66 30.28 4.47 30.67 4.47C31.01 4.47 31.16 4.51 31.36 4.58L31.67 5.57ZM35.03 9.70L35.03 4.84C35.48 4.63 35.98 4.47 36.53 4.47C37.27 4.47 37.91 5.00 37.91 5.89L37.91 9.70L37.00 10.00L37.11 10.50L40.04 10.50L40.14 10.00L39.23 9.70L39.23 6.10C39.23 4.62 38.37 3.81 36.85 3.81C36.12 3.81 35.62 4.05 35.03 4.33L34.52 3.81L32.91 3.96L33.01 4.47L33.71 4.47L33.71 9.70L32.80 10.00L32.90 10.50L35.84 10.50L35.95 10.00ZM43.43 9.70L43.43 3.96L42.78 3.81L41.30 3.96L41.40 4.47L42.11 4.47L42.11 9.70L41.19 10.00L41.30 10.50L44.23 10.50L44.34 10.00ZM42.73 0.74C42.32 0.74 41.97 1.08 41.97 1.50C41.97 1.92 42.32 2.25 42.73 2.25C43.15 2.25 43.50 1.92 43.50 1.50C43.50 1.08 43.15 0.74 42.73 0.74ZM47.60 10.65C49.22 10.65 50.15 9.88 50.15 8.69C50.15 7.46 49.08 6.99 48.09 6.57C47.43 6.29 46.59 5.94 46.59 5.31C46.59 4.73 47.10 4.33 47.85 4.33C48.30 4.33 48.78 4.41 49.08 4.56L49.36 5.57L49.87 5.47L49.87 4.31C49.27 4.00 48.62 3.81 48.01 3.81C46.48 3.81 45.49 4.54 45.49 5.67C45.49 6.78 46.33 7.25 47.26 7.69C48.05 8.04 49.03 8.37 49.03 9.06C49.03 9.73 48.38 10.14 47.49 10.14C47.19 10.14 46.75 10.02 46.44 9.91L45.98 8.55L45.46 8.65L45.46 10.14C46.17 10.49 47.00 10.65 47.60 10.65ZM62.62 1.75L63.84 1.29L63.73 0.70L60.89 0.70L60.77 1.29L62.01 1.75L59.43 9.00L59.43 8.16L57.09 1.75L58.31 1.29L58.20 0.70L54.39 0.70L54.28 1.29L55.51 1.75L58.79 10.74L59.51 10.50ZM66.43 9.70L66.43 3.96L65.79 3.81L64.30 3.96L64.40 4.47L65.11 4.47L65.11 9.70L64.19 10.00L64.30 10.50L67.23 10.50L67.34 10.00ZM65.73 0.74C65.32 0.74 64.97 1.08 64.97 1.50C64.97 1.92 65.32 2.25 65.73 2.25C66.15 2.25 66.50 1.92 66.50 1.50C66.50 1.08 66.15 0.74 65.73 0.74ZM72.10 4.33C72.46 4.33 72.95 4.41 73.33 4.56L73.60 5.57L74.10 5.47L74.10 4.31C73.40 3.96 72.74 3.81 72.06 3.81C69.87 3.81 68.46 5.07 68.46 7.24C68.46 9.31 69.55 10.65 72.03 10.65C72.94 10.65 73.68 10.37 74.28 9.83L73.96 9.37C73.39 9.73 72.84 10.00 72.11 10.00C70.36 10.00 69.93 8.64 69.93 6.96C69.93 5.31 70.70 4.33 72.10 4.33ZM77.39 9.70L77.39 3.96L76.75 3.81L75.26 3.96L75.36 4.47L76.08 4.47L76.08 9.70L75.15 10.00L75.26 10.50L78.19 10.50L78.30 10.00ZM76.69 0.74C76.29 0.74 75.94 1.08 75.94 1.50C75.94 1.92 76.29 2.25 76.69 2.25C77.11 2.25 77.46 1.92 77.46 1.50C77.46 1.08 77.11 0.74 76.69 0.74ZM81.61 4.70C82.01 4.56 82.40 4.47 82.81 4.47C83.83 4.47 84.43 5.01 84.43 6.92C84.43 8.82 83.82 10.00 82.56 10.00C82.01 10.00 81.51 9.88 81.16 9.70L81.16 0.20L80.54 0.04L78.89 0.20L79.00 0.70L79.84 0.70L79.84 10.00C80.65 10.47 81.48 10.65 82.66 10.65C84.87 10.65 85.89 9.23 85.89 7.07C85.89 4.83 84.99 3.81 82.94 3.81C82.52 3.81 82.00 3.91 81.61 4.09ZM91.80 9.28C91.46 9.76 90.96 10.00 90.40 10.00C89.66 10.00 88.91 9.55 88.91 8.27L88.91 3.96L88.31 3.81L86.87 3.96L86.97 4.47L87.60 4.47L87.60 8.15C87.60 9.65 88.35 10.65 89.88 10.65C90.66 10.65 91.17 10.54 91.80 10.00L92.05 10.50L93.93 10.50L94.02 10.00L93.11 9.70L93.11 3.96L92.61 3.81L91.06 3.96L91.15 4.47L91.80 4.47ZM96.94 10.65C98.56 10.65 99.48 9.88 99.48 8.69C99.48 7.46 98.42 6.99 97.43 6.57C96.77 6.29 95.93 5.94 95.93 5.31C95.93 4.73 96.43 4.33 97.19 4.33C97.64 4.33 98.11 4.41 98.42 4.56L98.70 5.57L99.20 5.47L99.20 4.31C98.60 4.00 97.96 3.81 97.34 3.81C95.82 3.81 94.82 4.54 94.82 5.67C94.82 6.78 95.66 7.25 96.60 7.69C97.38 8.04 98.36 8.37 98.36 9.06C98.36 9.73 97.72 10.14 96.82 10.14C96.53 10.14 96.08 10.02 95.77 9.91L95.31 8.55L94.79 8.65L94.79 10.14C95.51 10.49 96.33 10.65 96.94 10.65Z"></path></g> <!----> <g data-v-1084b650="" id="88657843-c673-8d74-d1da-5d1e8a5ef2a0" stroke="none" fill="#D9C6C8" transform="matrix(0.21469616001568562,0,0,0.21469616001568562,117.79427586540476,100.40897285528325)"><svg xmlns="http://www.w3.org/2000/svg" xmlns:xlink="http://www.w3.org/1999/xlink" version="1.1" x="0px" y="0px" viewBox="0 0 100 100" enable-background="new 0 0 100 100" xml:space="preserve"><path d="M52.21,26.36c0.023-1.404,0.089-3,0.072-4.596c0-0.043-0.001-0.087,0.003-0.13c0.02-0.214,0.051-0.251,0.268-0.213  c0.269,0.047,0.538,0.074,0.81,0.061c0.618-0.031,1.177-0.225,1.621-0.664c0.328-0.324,0.544-0.732,0.731-1.149  c0.285-0.634,0.558-1.273,0.832-1.912c0.401-0.935,0.909-1.806,1.608-2.55c0.542-0.576,1.18-1.026,1.929-1.298  c0.445-0.162,0.9-0.108,1.349-0.011c0.876,0.189,1.7,0.528,2.509,0.902c1.874,0.866,3.682,1.865,5.535,2.771  c1.592,0.779,3.21,1.493,4.901,2.031c1.173,0.373,2.369,0.663,3.595,0.75c1.425,0.102,2.845,0.043,4.212-0.456  c0.603-0.22,1.216-0.399,1.858-0.474c0.235-0.028,0.456-0.003,0.673,0.07c0.214,0.072,0.29,0.191,0.293,0.417  c0.003,0.201-0.064,0.384-0.148,0.562c-0.23,0.488-0.561,0.908-0.947,1.275c-0.771,0.734-1.649,1.307-2.661,1.661  c-0.598,0.21-1.21,0.343-1.845,0.365c-0.314,0.011-0.349,0.04-0.296,0.341c0.054,0.308-0.082,0.503-0.33,0.642  c-0.368,0.206-0.776,0.272-1.187,0.318c-1.129,0.128-2.229-0.031-3.312-0.344c-0.052-0.015-0.105-0.028-0.157-0.043  c-0.132-0.036-0.213,0.013-0.234,0.147c-0.015,0.096-0.021,0.194-0.032,0.291c-0.113,1.01-0.62,1.481-1.477,1.65  c-0.605,0.119-1.189,0.013-1.775-0.104c-0.234-0.047-0.463-0.117-0.693-0.182c-0.394-0.112-0.393-0.114-0.567,0.242  c-0.119,0.244-0.239,0.487-0.408,0.703c-0.414,0.529-0.957,0.797-1.623,0.84c-0.661,0.042-1.297-0.081-1.924-0.275  c-0.249-0.077-0.498-0.155-0.749-0.224c-0.324-0.09-0.324-0.086-0.48,0.203c-0.052,0.095-0.105,0.19-0.164,0.281  c-0.418,0.642-1.042,0.863-1.768,0.824c-0.898-0.048-1.708-0.387-2.486-0.815c-0.076-0.042-0.15-0.088-0.227-0.129  c-0.452-0.245-0.457-0.247-0.845,0.107c-0.209,0.19-0.405,0.394-0.613,0.585c-0.597,0.546-1.314,0.687-2.092,0.596  c-1.216-0.142-2.37-0.531-3.527-0.907c-0.194-0.063-0.237-0.192-0.235-0.373C52.213,27.616,52.21,27.084,52.21,26.36z"></path><path d="M47.785,27.122c0,0.427-0.005,0.742,0.002,1.057c0.004,0.177-0.068,0.28-0.238,0.339c-1.152,0.394-2.31,0.764-3.525,0.913  c-0.859,0.105-1.615-0.108-2.234-0.737c-0.168-0.17-0.339-0.337-0.514-0.5c-0.303-0.281-0.359-0.296-0.712-0.094  c-0.463,0.265-0.938,0.5-1.437,0.69c-0.461,0.176-0.939,0.292-1.428,0.302c-0.799,0.016-1.433-0.296-1.82-1.032  c-0.198-0.377-0.202-0.375-0.622-0.253c-0.365,0.106-0.729,0.215-1.095,0.316c-0.41,0.113-0.829,0.154-1.256,0.159  c-0.971,0.011-1.654-0.436-2.111-1.269c-0.063-0.114-0.116-0.233-0.172-0.351c-0.133-0.282-0.132-0.282-0.444-0.198  c-0.262,0.071-0.521,0.155-0.787,0.209c-0.564,0.114-1.127,0.222-1.71,0.113c-0.963-0.179-1.464-0.72-1.542-1.698  c-0.037-0.467-0.041-0.474-0.476-0.338c-0.784,0.244-1.592,0.348-2.406,0.375c-0.573,0.019-1.151-0.031-1.702-0.224  c-0.122-0.043-0.245-0.092-0.357-0.157c-0.235-0.138-0.357-0.326-0.3-0.622c0.057-0.298,0.011-0.333-0.299-0.348  c-1.569-0.075-2.92-0.686-4.117-1.677c-0.455-0.377-0.853-0.804-1.167-1.305c-0.139-0.222-0.26-0.454-0.308-0.714  c-0.067-0.361,0.048-0.52,0.397-0.623c0.341-0.099,0.67-0.014,0.999,0.038c0.419,0.066,0.824,0.195,1.223,0.339  c1.063,0.385,2.158,0.548,3.289,0.556c1.595,0.012,3.129-0.298,4.64-0.765c1.571-0.485,3.082-1.122,4.553-1.852  c1.605-0.796,3.194-1.626,4.8-2.421c0.963-0.477,1.93-0.95,2.962-1.268c0.427-0.132,0.86-0.233,1.304-0.274  c0.449-0.041,0.856,0.112,1.245,0.318c1.038,0.55,1.803,1.376,2.399,2.375c0.508,0.853,0.871,1.772,1.259,2.681  c0.179,0.42,0.377,0.83,0.618,1.22c0.439,0.709,1.106,1.014,1.906,1.076c0.237,0.018,0.476,0.007,0.714-0.036  c0.288-0.052,0.339-0.009,0.379,0.288c0.019,0.139,0.021,0.281,0.022,0.422c0.006,1.119,0.011,2.238,0.015,3.357  C47.732,26.085,47.822,26.657,47.785,27.122z"></path><path d="M42.256,32.892c0.439-0.033,0.914,0.022,1.389,0.07c0.262,0.027,0.511,0.115,0.734,0.254  c0.762,0.474,1.374,1.093,1.785,1.898c0.015,0.029,0.029,0.059,0.042,0.088c0.272,0.601,0.195,0.831-0.386,1.125  c-0.938,0.475-1.94,0.609-2.976,0.534c-0.26-0.019-0.51-0.104-0.745-0.225c-0.406-0.208-0.819-0.403-1.221-0.619  c-0.654-0.351-1.359-0.507-2.09-0.572c-0.769-0.068-1.539-0.08-2.31-0.073c-0.252,0.002-0.499,0.037-0.741,0.098  c-0.875,0.22-1.244,1.094-0.802,1.889c0.15,0.27,0.359,0.489,0.601,0.678c0.786,0.618,1.677,1.042,2.6,1.403  c1.823,0.711,3.718,1.122,5.657,1.344c0.949,0.108,1.9,0.171,2.856,0.196c1.801,0.047,3.6,0.132,5.372,0.506  c1.877,0.396,3.716,0.901,5.422,1.807c0.991,0.526,1.866,1.192,2.511,2.127c0.554,0.803,0.86,1.685,0.786,2.665  c-0.061,0.806-0.36,1.541-0.793,2.219c-0.679,1.061-1.599,1.882-2.615,2.604c-0.942,0.669-1.956,1.212-2.995,1.712  c-0.196,0.095-0.353,0.096-0.543-0.024c-0.515-0.325-1.059-0.598-1.621-0.832c-0.117-0.049-0.263-0.083-0.279-0.242  c-0.018-0.182-0.046-0.371,0.031-0.546c0.048-0.107,0.17-0.127,0.27-0.168c0.692-0.287,1.39-0.561,2.062-0.894  c0.656-0.325,1.273-0.714,1.801-1.221c0.621-0.596,1.067-1.299,1.036-2.202c-0.026-0.752-0.375-1.375-0.88-1.912  c-0.667-0.711-1.496-1.185-2.385-1.553c-0.937-0.388-1.908-0.66-2.92-0.768c-0.324-0.035-0.65-0.046-0.974-0.065  c-1.235-0.073-2.466-0.186-3.698-0.285c-1.636-0.131-3.26-0.341-4.85-0.766c-1.911-0.51-3.731-1.234-5.418-2.275  c-1.052-0.649-2.01-1.412-2.771-2.394c-0.395-0.51-0.703-1.067-0.817-1.719c-0.115-0.662,0.076-1.222,0.508-1.715  c0.29-0.331,0.64-0.585,1.03-0.787c0.84-0.433,1.742-0.669,2.664-0.834c0.855-0.153,1.72-0.226,2.587-0.276  c0.411-0.023,0.82-0.089,1.229-0.14C41.001,32.929,41.606,32.87,42.256,32.892z"></path><path d="M48.624,37.756c0-0.38,0.012-0.761-0.002-1.141c-0.067-1.878-0.024-3.758-0.079-5.635c-0.044-1.488-0.002-2.976-0.06-4.462  c-0.06-1.531-0.007-3.063-0.068-4.593c-0.055-1.379-0.007-2.759-0.063-4.136c-0.041-1.021-0.045-2.041-0.052-3.061  c-0.001-0.181-0.066-0.303-0.212-0.409c-0.813-0.594-1.246-1.408-1.328-2.401c-0.057-0.679,0.114-1.317,0.475-1.896  c0.623-0.999,1.547-1.541,2.706-1.553c1.969-0.02,3.249,1.613,3.273,3.096c0.019,1.134-0.413,2.024-1.281,2.717  c-0.173,0.138-0.238,0.285-0.241,0.497c-0.029,1.629-0.039,3.258-0.075,4.886c-0.036,1.585-0.007,3.172-0.066,4.755  c-0.055,1.466-0.002,2.933-0.061,4.397c-0.066,1.618-0.005,3.237-0.068,4.853c-0.06,1.553-0.017,3.106-0.061,4.658  c-0.018,0.651-0.043,1.302-0.052,1.953c-0.004,0.279-0.068,0.34-0.332,0.295c-0.664-0.113-1.335-0.161-2.003-0.239  c-0.296-0.034-0.33-0.061-0.332-0.366c-0.006-0.739-0.002-1.477-0.002-2.216C48.634,37.756,48.629,37.756,48.624,37.756z"></path><path d="M46.28,44.651c-0.081,0.143-0.201,0.143-0.296,0.178c-0.876,0.327-1.684,0.766-2.312,1.474  c-0.696,0.786-1.032,1.69-0.735,2.737c0.22,0.775,0.701,1.389,1.318,1.898c0.754,0.621,1.611,1.058,2.505,1.438  c1.72,0.73,3.47,1.383,5.202,2.084c1.233,0.499,2.325,1.225,3.245,2.189c0.755,0.79,1.326,1.695,1.517,2.794  c0.19,1.094,0.011,2.14-0.446,3.144c-0.601,1.322-1.522,2.392-2.611,3.332c-0.272,0.234-0.561,0.446-0.844,0.665  c-0.14,0.109-0.259,0.119-0.407,0.003c-0.153-0.12-0.325-0.218-0.493-0.316c-0.156-0.091-0.235-0.212-0.229-0.397  c0.009-0.293,0.012-0.587,0.004-0.88c-0.006-0.217,0.088-0.362,0.256-0.494c0.688-0.539,1.295-1.159,1.787-1.882  c0.428-0.63,0.716-1.308,0.698-2.096c-0.019-0.812-0.382-1.461-0.913-2.031c-0.776-0.833-1.745-1.389-2.765-1.863  c-1.134-0.528-2.332-0.892-3.497-1.342c-1.759-0.68-3.444-1.504-4.957-2.645c-0.926-0.698-1.742-1.502-2.348-2.503  c-0.418-0.692-0.673-1.439-0.701-2.246c-0.025-0.72,0.172-1.401,0.519-2.029c0.394-0.711,0.933-1.304,1.571-1.808  c0.138-0.109,0.274-0.11,0.427-0.073c0.707,0.171,1.423,0.304,2.143,0.405c0.526,0.074,1.053,0.139,1.584,0.174  C45.756,44.578,46.007,44.619,46.28,44.651z"></path><path d="M53.506,40.983c0.353-0.014,0.706-0.047,1.058-0.065c1.172-0.061,2.334-0.203,3.488-0.41  c1.513-0.272,2.982-0.692,4.393-1.304c0.719-0.312,1.409-0.678,2.028-1.166c0.215-0.17,0.401-0.365,0.549-0.596  c0.218-0.338,0.269-0.701,0.184-1.092c-0.089-0.41-0.334-0.673-0.723-0.809c-0.278-0.097-0.565-0.155-0.861-0.162  c-0.989-0.022-1.976,0.008-2.957,0.137c-0.61,0.081-1.175,0.303-1.717,0.587c-0.337,0.176-0.676,0.348-1.014,0.521  c-0.335,0.171-0.689,0.25-1.066,0.258c-0.938,0.02-1.839-0.124-2.683-0.552c-0.576-0.292-0.663-0.509-0.397-1.094  c0.404-0.889,1.063-1.552,1.894-2.048c0.436-0.261,0.937-0.263,1.422-0.289c1.164-0.062,2.318,0.067,3.471,0.221  c0.397,0.053,0.8,0.065,1.199,0.098c1.358,0.112,2.693,0.33,3.958,0.869c0.474,0.202,0.903,0.473,1.27,0.838  c0.674,0.67,0.817,1.454,0.499,2.335c-0.221,0.613-0.582,1.138-1.018,1.616c-0.963,1.056-2.117,1.86-3.371,2.529  c-1.338,0.714-2.741,1.259-4.201,1.664c-0.174,0.048-0.33,0.064-0.497-0.04c-1.35-0.841-2.827-1.375-4.351-1.797  c-0.187-0.052-0.372-0.108-0.558-0.162C53.506,41.039,53.506,41.011,53.506,40.983z"></path><path d="M51.568,75.274c0.001-0.228,0.019-0.455,0.034-0.683c0.014-0.214,0.105-0.365,0.254-0.505  c0.269-0.253,0.516-0.525,0.725-0.834c0.443-0.655,0.473-1.333,0.148-2.039c-0.178-0.388-0.424-0.735-0.705-1.052  c-0.777-0.876-1.686-1.594-2.668-2.226c-0.803-0.517-1.659-0.95-2.419-1.535c-1.094-0.841-2.058-1.801-2.776-2.99  c-0.582-0.965-0.953-1.994-0.949-3.139c0.003-0.916,0.263-1.755,0.737-2.531c0.488-0.799,1.137-1.448,1.88-2.01  c0.144-0.109,0.27-0.142,0.447-0.068c0.521,0.216,1.05,0.414,1.577,0.618c0.292,0.113,0.293,0.141,0.325,0.449  c0.038,0.363-0.108,0.575-0.418,0.759c-0.591,0.352-1.105,0.803-1.519,1.36c-0.714,0.96-0.801,1.988-0.332,3.075  c0.222,0.514,0.537,0.97,0.912,1.381c0.676,0.74,1.423,1.4,2.238,1.985c0.831,0.595,1.7,1.129,2.573,1.659  c1.041,0.632,1.959,1.403,2.64,2.428c0.442,0.666,0.703,1.402,0.73,2.199c0.018,0.533-0.099,1.057-0.289,1.56  c-0.189,0.502-0.462,0.956-0.778,1.387c-0.472,0.643-1.034,1.199-1.651,1.7c-0.227,0.184-0.241,0.167-0.465-0.024  c-0.191-0.162-0.279-0.351-0.254-0.6C51.577,75.492,51.568,75.383,51.568,75.274z"></path><path d="M51.511,85.808c-0.083-0.091-0.072-0.181-0.063-0.265c0.084-0.791,0.033-1.584,0.043-2.376  c0.008-0.597,0.104-1.188,0.073-1.787c-0.075-1.421-0.614-2.605-1.743-3.497c-0.715-0.565-1.445-1.114-2.145-1.697  c-0.898-0.748-1.701-1.588-2.213-2.658c-0.549-1.148-0.607-2.317-0.086-3.494c0.415-0.937,1.095-1.66,1.878-2.298  c0.107-0.087,0.21-0.105,0.325-0.025c0.009,0.006,0.019,0.011,0.028,0.017c0.824,0.506,0.654,0.265,0.715,1.167  c0.04,0.602-0.084,1.093-0.531,1.519c-0.258,0.245-0.428,0.573-0.564,0.908c-0.272,0.672-0.224,1.313,0.19,1.92  c0.34,0.498,0.761,0.921,1.223,1.3c0.872,0.716,1.781,1.39,2.629,2.133c1.011,0.886,1.66,1.994,1.805,3.36  c0.22,2.065-0.362,3.928-1.431,5.667c-0.017,0.027-0.039,0.053-0.062,0.075C51.567,85.789,51.544,85.794,51.511,85.808z"></path><path d="M51.245,46.967c-0.072,1.984-0.07,3.968-0.073,5.953c0,0.033,0.001,0.065-0.002,0.098c-0.018,0.269-0.072,0.316-0.324,0.221  c-0.599-0.225-1.191-0.467-1.789-0.696c-0.163-0.063-0.249-0.164-0.237-0.342c0.002-0.032-0.001-0.065-0.001-0.098  c-0.029-2.114-0.085-4.228-0.069-6.343c0.002-0.228,0.001-0.455-0.027-0.682c-0.017-0.138,0.031-0.24,0.195-0.228  c0.67,0.05,1.342,0.058,2.008,0.148c0.306,0.041,0.316,0.061,0.318,0.374C51.248,45.904,51.245,46.435,51.245,46.967z"></path><path d="M51.108,58.333c-0.1,1.809-0.033,3.633-0.076,5.454c-0.012,0.531-0.036,1.062-0.047,1.593  c-0.005,0.266-0.047,0.284-0.282,0.144c-0.523-0.311-1.009-0.677-1.505-1.027c-0.193-0.136-0.243-0.31-0.243-0.531  c0.002-0.955,0.019-1.911-0.013-2.864c-0.044-1.312-0.053-2.624-0.057-3.937c-0.001-0.524,0.003-0.527,0.503-0.326  c0.453,0.182,0.896,0.387,1.34,0.589c0.289,0.132,0.419,0.32,0.38,0.632C51.098,58.147,51.108,58.235,51.108,58.333z"></path><path d="M51.375,88.787c-0.265-0.117-0.447-0.302-0.643-0.461c-1.256-1.021-2.262-2.245-2.965-3.709  c-0.465-0.968-0.736-1.988-0.85-3.058c-0.063-0.59-0.036-1.17,0.043-1.751c0.108-0.792,0.439-1.495,0.892-2.145  c0.059-0.084,0.096-0.207,0.234-0.197c0.1,0.007,0.313,0.214,0.333,0.328c0.015,0.085,0.015,0.173,0.015,0.259  c0.001,1.14,0.025,2.281-0.004,3.42c-0.036,1.417,0.352,2.724,0.938,3.988c0.499,1.078,1.14,2.072,1.85,3.022  C51.28,88.566,51.371,88.636,51.375,88.787z"></path><path d="M50.91,72.372c0,0.575,0.006,1.151-0.002,1.726c-0.005,0.336-0.028,0.672-0.051,1.007c-0.014,0.199-0.08,0.233-0.246,0.103  c-0.47-0.368-0.929-0.75-1.394-1.123c-0.139-0.112-0.132-0.264-0.133-0.416c-0.002-0.738,0.012-1.477-0.01-2.215  c-0.024-0.792-0.056-1.583-0.052-2.375c0-0.054-0.002-0.109,0-0.163c0.009-0.27,0.051-0.295,0.278-0.144  c0.497,0.332,0.972,0.692,1.416,1.094c0.149,0.134,0.212,0.286,0.21,0.486c-0.007,0.673-0.003,1.346-0.003,2.019  C50.919,72.372,50.915,72.372,50.91,72.372z"></path><path d="M50.729,86.306c-0.132-0.016-0.157-0.081-0.187-0.136c-0.574-1.053-1.081-2.132-1.289-3.327  c-0.017-0.096-0.035-0.193-0.04-0.29c-0.062-1.302-0.063-2.605-0.066-3.908c0-0.011-0.001-0.022,0-0.033  c0.013-0.081-0.03-0.191,0.076-0.227c0.081-0.028,0.133,0.055,0.192,0.1c0.74,0.557,1.142,1.319,1.341,2.205  c0.036,0.161,0.036,0.323,0.035,0.486c-0.004,1.271-0.009,2.542-0.012,3.813C50.779,85.423,50.707,85.853,50.729,86.306z"></path><path d="M49.319,88.089c0.243,0.126,0.381,0.327,0.568,0.468c0.233,0.175,0.447,0.376,0.672,0.563  c0.079,0.065,0.141,0.132,0.131,0.244c-0.049,0.594-0.101,1.188-0.327,1.749c-0.073,0.18-0.138,0.402-0.362,0.418  c-0.243,0.018-0.287-0.228-0.375-0.393c-0.097-0.183-0.143-0.385-0.184-0.587c-0.158-0.768-0.188-1.546-0.162-2.327  C49.281,88.192,49.297,88.161,49.319,88.089z"></path></svg></g></svg>